<?xml version="1.0" encoding="UTF-8" standalone="no"?>
<svg
   xmlns:dc="http://purl.org/dc/elements/1.1/"
   xmlns:cc="http://creativecommons.org/ns#"
   xmlns:rdf="http://www.w3.org/1999/02/22-rdf-syntax-ns#"
   xmlns:svg="http://www.w3.org/2000/svg"
   xmlns="http://www.w3.org/2000/svg"
   xmlns:sodipodi="http://sodipodi.sourceforge.net/DTD/sodipodi-0.dtd"
   xmlns:inkscape="http://www.inkscape.org/namespaces/inkscape"
   sodipodi:docname="logo.svg"
   inkscape:version="1.0 (4035a4fb49, 2020-05-01)"
   id="svg963"
   version="1.1"
   viewBox="0 0 210 297"
   height="297mm"
   width="210mm">
  <defs
     id="defs957" />
  <sodipodi:namedview
     inkscape:window-maximized="1"
     inkscape:window-y="-8"
     inkscape:window-x="-8"
     inkscape:window-height="1057"
     inkscape:window-width="1920"
     showgrid="false"
     inkscape:document-rotation="0"
     inkscape:current-layer="layer1"
     inkscape:document-units="mm"
     inkscape:cy="278.00826"
     inkscape:cx="177.65085"
     inkscape:zoom="1.4142136"
     inkscape:pageshadow="2"
     inkscape:pageopacity="0.0"
     borderopacity="1.0"
     bordercolor="#666666"
     pagecolor="#ffffff"
     id="base">
    <inkscape:grid
       id="grid1526"
       type="xygrid" />
  </sodipodi:namedview>
  <metadata
     id="metadata960">
    <rdf:RDF>
      <cc:Work
         rdf:about="">
        <dc:format>image/svg+xml</dc:format>
        <dc:type
           rdf:resource="http://purl.org/dc/dcmitype/StillImage" />
        <dc:title></dc:title>
      </cc:Work>
    </rdf:RDF>
  </metadata>
  <g
     id="layer1"
     inkscape:groupmode="layer"
     inkscape:label="Layer 1">
    <path
       id="path1528"
       d="M 27.78125,49.455587 V 59.53125 H 52.737012 L 40.259131,49.455587 Z"
       style="fill:none;fill-opacity:1;stroke:#000000;stroke-width:0.264583;stroke-linecap:butt;stroke-linejoin:miter;stroke-miterlimit:4;stroke-dasharray:none;stroke-opacity:1" />
    <path
       id="path1534"
       d="M 40.259131,49.455587 52.737012,59.53125 h 9.358411 l 6.238941,-10.075663 z"
       style="fill:none;fill-opacity:1;stroke:#000000;stroke-width:0.264583;stroke-miterlimit:4;stroke-dasharray:none;stroke-opacity:1" />
    <path
       id="path1536"
       d="m 62.095423,59.53125 h 21.83629 l -6.23894,-10.075663 h -9.358409 z"
       style="fill:none;fill-opacity:1;stroke:#000000;stroke-width:0.264583;stroke-miterlimit:4;stroke-dasharray:none;stroke-opacity:1" />
    <path
       id="path1574"
       d="m 48.947917,34.395833 v 6.614581 h 5.291667 l -2.645833,-6.614581 h -2.645834 9.260417 l -2.645833,6.614581 h 3.96875 l 1.322916,-6.614581 h 3.96875 l -3.96875,6.614581 h 5.291667 v -6.614581 z"
       style="fill:none;fill-opacity:1;stroke:#000000;stroke-width:0.24153;stroke-miterlimit:4;stroke-dasharray:none;stroke-opacity:1" />
    <path
       id="path1576"
       d="m 70.114584,34.395833 v 6.614581 h 14.552083 v -6.614581 z"
       style="fill:none;fill-opacity:1;stroke:#000000;stroke-width:0.24153;stroke-miterlimit:4;stroke-dasharray:none;stroke-opacity:1" />
    <path
       id="path1578"
       d="m 88.635417,34.395833 v 6.614581 h 13.229163 v -6.614581 z"
       style="fill:none;fill-opacity:1;stroke:#000000;stroke-width:0.24153;stroke-miterlimit:4;stroke-dasharray:none;stroke-opacity:1" />
    <path
       id="path1580"
       d="m 83.34375,34.395833 -2.645833,6.614581 H 79.375 v -6.614581 h -3.96875 l 2.645834,6.614581 h -3.96875 L 71.4375,34.395833"
       style="fill:none;fill-opacity:1;stroke:#000000;stroke-width:0.24153;stroke-miterlimit:4;stroke-dasharray:none;stroke-opacity:1" />
    <path
       id="path1582"
       d="m 91.28125,34.395833 -1.322917,6.614581 h 3.96875 l -1.322916,-6.614581 h 3.96875 L 95.25,41.010414 h 2.645833 l 2.645837,-6.614581"
       style="fill:none;fill-opacity:1;stroke:#000000;stroke-width:0.24153;stroke-miterlimit:4;stroke-dasharray:none;stroke-opacity:1" />
    <path
       id="path1584"
       d="M 66.145834,41.010414 H 48.947917 v -6.614581 h 17.197917 v 6.614581 0"
       style="fill:none;fill-opacity:1;stroke:#000000;stroke-width:0.24153;stroke-miterlimit:4;stroke-dasharray:none;stroke-opacity:1" />
    <g
       transform="translate(-26.02271,-32.94131)"
       id="g1594">
      <path
         style="fill:none;fill-opacity:1;stroke:#000000;stroke-width:0.529167;stroke-miterlimit:4;stroke-dasharray:none;stroke-opacity:1"
         id="path1586"
         sodipodi:type="arc"
         sodipodi:cx="92.569374"
         sodipodi:cy="-1.5570475"
         sodipodi:rx="8.7852039"
         sodipodi:ry="8.7852039"
         sodipodi:start="0.26179939"
         sodipodi:end="3.5366783"
         sodipodi:arc-type="arc"
         d="M 101.05523,0.71673063 A 8.7852039,8.7852039 0 0 1 94.464016,7.021422 8.7852039,8.7852039 0 0 1 85.830541,4.0792581 8.7852039,8.7852039 0 0 1 84.460951,-4.9383604"
         sodipodi:open="true"
         transform="rotate(70.43837)" />
      <path
         style="fill:none;fill-opacity:1;stroke:#000000;stroke-width:0.529167;stroke-miterlimit:4;stroke-dasharray:none;stroke-opacity:1"
         d="M 32.637293,77.920477 H 130.53314"
         id="path1588" />
    </g>
    <g
       transform="translate(5.4255714,-40.224064)"
       id="g1600">
      <path
         style="fill:#b3adc3;fill-opacity:0.943548;stroke:#505050;stroke-width:0.389;stroke-miterlimit:4;stroke-dasharray:none;stroke-opacity:1"
         d="M 134.14374,101.24568 V 78.316666 h 3.96875 l -2.64583,22.929014 h 1.32291 l 6.61459,-22.929014 h 6.61458 l -11.90625,22.929014 h 1.32292 l 18.52083,-22.929014 h -23.8125 v 22.929014 h 5.29167"
         id="path1590"
         inkscape:export-xdpi="259.84995"
         inkscape:export-ydpi="259.84995" />
      <path
         id="path1596"
         d="m 134.14374,78.316666 v 22.929014 h 3.96875 l -2.64583,-22.929014 h 1.32291 l 6.61459,22.929014 h 6.61458 L 138.11249,78.316666 h 1.32292 l 18.52083,22.929014 h -23.8125 V 78.316666 h 5.29167"
         style="fill:#838383;fill-opacity:1;stroke:#000000;stroke-width:0.389443;stroke-miterlimit:4;stroke-dasharray:none;stroke-opacity:1"
         inkscape:export-xdpi="259.84995"
         inkscape:export-ydpi="259.84995" />
    </g>
    <g
       id="g1622">
      <path
         id="path1546"
         style="font-size:25.8705px;line-height:1.25;font-family:Comfortaa;-inkscape-font-specification:Comfortaa;stroke-width:0.646764;fill:#636271;fill-opacity:1"
         d="m 32.669311,93.906871 q -2.06964,0 -3.725352,-0.931338 -1.629842,-0.957209 -2.58705,-2.58705 -0.931338,-1.655712 -0.931338,-3.699482 0,-2.06964 0.931338,-3.699481 0.957208,-1.655712 2.58705,-2.58705 1.655712,-0.957209 3.725352,-0.957209 2.06964,0 3.699481,0.957209 1.629842,0.931338 2.56118,2.58705 0.957208,1.629841 0.957208,3.699481 l -0.646762,1.03482 q 0,1.759194 -0.879597,3.156201 -0.853727,1.397007 -2.328345,2.224863 -1.474619,0.801986 -3.363165,0.801986 z m 0,-1.448748 q 1.629841,0 2.897496,-0.750245 1.293525,-0.776115 2.017899,-2.06964 0.750244,-1.319395 0.750244,-2.949237 0,-1.655712 -0.750244,-2.949237 -0.724374,-1.319395 -2.017899,-2.06964 -1.267655,-0.776115 -2.897496,-0.776115 -1.603971,0 -2.897496,0.776115 -1.293525,0.750245 -2.04377,2.06964 -0.750244,1.293525 -0.750244,2.949237 0,1.629842 0.750244,2.949237 0.750245,1.293525 2.04377,2.06964 1.293525,0.750245 2.897496,0.750245 z m 6.467625,1.293525 q -0.362187,0 -0.595022,-0.206964 -0.206964,-0.232835 -0.206964,-0.569151 v -4.734302 l 0.49154,-1.55223 h 1.06069 v 6.286532 q 0,0.336316 -0.206964,0.569151 -0.206964,0.206964 -0.54328,0.206964 z"
         inkscape:export-xdpi="259.84995"
         inkscape:export-ydpi="259.84995" />
      <path
         id="path1550"
         style="font-size:25.8705px;line-height:1.25;font-family:Comfortaa;-inkscape-font-specification:Comfortaa;stroke-width:0.646764;fill:#636271;fill-opacity:1"
         d="m 61.845101,101.48567 c -0.224211,0 -0.413928,-0.0776 -0.569151,-0.23284 -0.137976,-0.13797 -0.206964,-0.31907 -0.206964,-0.54328 V 86.533778 c 0.03449,-1.362513 0.362186,-2.569803 0.983079,-3.62187 0.638139,-1.069314 1.500489,-1.914417 2.58705,-2.535309 1.086561,-0.620892 2.302475,-0.931338 3.647741,-0.931338 1.37976,0 2.61292,0.31907 3.699481,0.957209 1.103808,0.620892 1.966158,1.483242 2.58705,2.58705 0.638139,1.086561 0.957209,2.319721 0.957209,3.699481 0,1.362513 -0.31907,2.595674 -0.957209,3.699482 -0.620892,1.086561 -1.483242,1.948911 -2.58705,2.58705 -1.086561,0.620892 -2.319721,0.931338 -3.699481,0.931338 -1.241784,0 -2.362839,-0.267329 -3.363165,-0.801986 -0.983079,-0.534657 -1.750571,-1.250407 -2.302475,-2.147251 v 9.751916 c 0,0.22421 -0.06899,0.40531 -0.206964,0.54328 -0.137976,0.15523 -0.327693,0.23284 -0.569151,0.23284 z m 6.441755,-9.027547 c 1.086561,0 2.052393,-0.250082 2.897496,-0.750245 0.86235,-0.51741 1.543606,-1.20729 2.043769,-2.06964 0.500163,-0.879597 0.750245,-1.862676 0.750245,-2.949237 0,-1.103808 -0.250082,-2.086887 -0.750245,-2.949237 -0.500163,-0.879597 -1.181419,-1.569477 -2.043769,-2.06964 -0.845103,-0.51741 -1.810935,-0.776115 -2.897496,-0.776115 -1.069314,0 -2.035146,0.258705 -2.897496,0.776115 -0.86235,0.500163 -1.543607,1.190043 -2.04377,2.06964 -0.482916,0.86235 -0.724374,1.845429 -0.724374,2.949237 0,1.086561 0.241458,2.06964 0.724374,2.949237 0.500163,0.86235 1.18142,1.55223 2.04377,2.06964 0.86235,0.500163 1.828182,0.750245 2.897496,0.750245 z"
         sodipodi:nodetypes="sssccssccsccsccscssccsccsccsccs"
         inkscape:export-xdpi="259.84995"
         inkscape:export-ydpi="259.84995" />
      <path
         id="path1552"
         style="font-size:25.8705px;line-height:1.25;font-family:Comfortaa;-inkscape-font-specification:Comfortaa;stroke-width:0.646764;fill:#636271;fill-opacity:1"
         d="m 86.729765,93.881 q -2.04377,0 -3.647741,-0.905467 -1.5781,-0.931338 -2.483568,-2.56118 -0.905467,-1.629841 -0.905467,-3.725352 0,-2.121381 0.853726,-3.725352 0.853727,-1.629841 2.354216,-2.561179 1.500489,-0.931338 3.440776,-0.931338 1.914417,0 3.389036,0.905467 1.474618,0.879597 2.302474,2.457698 0.827856,1.55223 0.827856,3.595999 0,0.336317 -0.206964,0.543281 -0.206964,0.181093 -0.54328,0.181093 h -11.38302 v -1.345266 h 11.796948 l -1.138302,0.853727 q 0.05174,-1.681583 -0.569151,-2.975108 -0.620892,-1.293525 -1.785065,-2.017899 -1.138302,-0.750244 -2.690532,-0.750244 -1.474618,0 -2.638791,0.750244 -1.138302,0.724374 -1.810935,2.017899 -0.646762,1.293525 -0.646762,3.000978 0,1.681583 0.698503,2.975108 0.698504,1.293525 1.940288,2.043769 1.241784,0.724374 2.845755,0.724374 1.008949,0 2.017899,-0.336316 1.03482,-0.362187 1.629841,-0.931338 0.206964,-0.206964 0.49154,-0.206964 0.310446,-0.02587 0.51741,0.155223 0.284575,0.232834 0.284575,0.51741 0.02587,0.284575 -0.232834,0.51741 -0.827856,0.750244 -2.173122,1.241784 Q 87.945678,93.881 86.729765,93.881 Z"
         inkscape:export-xdpi="259.84995"
         inkscape:export-ydpi="259.84995" />
      <path
         id="path1554"
         style="font-size:25.8705px;line-height:1.25;font-family:Comfortaa;-inkscape-font-specification:Comfortaa;stroke-width:0.646764;fill:#636271;fill-opacity:1"
         d="m 97.268763,92.949662 -1.52636,-0.388057 10.167107,-12.676545 1.08656,0.853726 z m -0.983079,0.801986 q -0.698504,0 -0.698504,-0.698504 0,-0.698503 0.698504,-0.698503 h 10.115366 q 0.6985,0 0.6985,0.698503 0,0.698504 -0.6985,0.698504 z m 0,-12.754157 q -0.698504,0 -0.698504,-0.698503 0,-0.698504 0.698504,-0.698504 h 10.115366 q 0.6985,0 0.6985,0.698504 0,0.698503 -0.6985,0.698503 z"
         inkscape:export-xdpi="259.84995"
         inkscape:export-ydpi="259.84995" />
      <path
         style="font-size:25.8705px;line-height:1.25;font-family:Comfortaa;-inkscape-font-specification:Comfortaa;stroke-width:0.646764;fill:#636271;fill-opacity:1"
         d="m 111.87751,93.751648 q -0.33631,0 -0.56915,-0.206964 -0.20696,-0.232835 -0.20696,-0.569151 V 80.376599 q 0,-0.362187 0.20696,-0.569151 0.23284,-0.206964 0.56915,-0.206964 0.36219,0 0.56915,0.206964 0.20697,0.206964 0.20697,0.569151 v 12.598934 q 0,0.336316 -0.20697,0.569151 -0.20696,0.206964 -0.56915,0.206964 z"
         id="path1556"
         inkscape:export-xdpi="259.84995"
         inkscape:export-ydpi="259.84995" />
      <path
         id="path1558"
         style="font-size:25.8705px;line-height:1.25;font-family:Comfortaa;-inkscape-font-specification:Comfortaa;stroke-width:0.646764;fill:#636271;fill-opacity:1"
         d="m 124.27716,93.906871 q -2.06964,0 -3.72535,-0.931338 -1.62984,-0.957209 -2.58705,-2.58705 -0.93134,-1.655712 -0.93134,-3.699482 0,-2.06964 0.93134,-3.699481 0.95721,-1.655712 2.58705,-2.58705 1.65571,-0.957209 3.72535,-0.957209 2.06964,0 3.69948,0.957209 1.62984,0.931338 2.56118,2.58705 0.95721,1.629841 0.95721,3.699481 l -0.64676,1.03482 q 0,1.759194 -0.8796,3.156201 -0.85373,1.397007 -2.32835,2.224863 -1.47461,0.801986 -3.36316,0.801986 z m 0,-1.448748 q 1.62984,0 2.8975,-0.750245 1.29352,-0.776115 2.0179,-2.06964 0.75024,-1.319395 0.75024,-2.949237 0,-1.655712 -0.75024,-2.949237 -0.72438,-1.319395 -2.0179,-2.06964 -1.26766,-0.776115 -2.8975,-0.776115 -1.60397,0 -2.8975,0.776115 -1.29352,0.750245 -2.04377,2.06964 -0.75024,1.293525 -0.75024,2.949237 0,1.629842 0.75024,2.949237 0.75025,1.293525 2.04377,2.06964 1.29353,0.750245 2.8975,0.750245 z m 6.46763,1.293525 q -0.36219,0 -0.59503,-0.206964 -0.20696,-0.232835 -0.20696,-0.569151 v -4.734302 l 0.49154,-1.55223 h 1.06069 v 6.286532 q 0,0.336316 -0.20696,0.569151 -0.20697,0.206964 -0.54328,0.206964 z"
         inkscape:export-xdpi="259.84995"
         inkscape:export-ydpi="259.84995" />
      <text
         xml:space="preserve"
         style="font-size:7.88361px;line-height:1.25;font-family:Comfortaa;-inkscape-font-specification:Comfortaa;stroke-width:0.197091;fill:#636271;fill-opacity:1;"
         x="79.548203"
         y="101.43964"
         id="text1544"
         inkscape:export-xdpi="259.84995"
         inkscape:export-ydpi="259.84995"><tspan
           sodipodi:role="line"
           id="tspan1542"
           x="79.548203"
           y="101.43964"
           style="stroke-width:0.197091;fill:#636271;fill-opacity:1;">technologies</tspan></text>
      <path
         sodipodi:nodetypes="sssccssccsccsccscssccsccsccsccs"
         d="m 44.042416,101.48567 c -0.224211,0 -0.413928,-0.0776 -0.569151,-0.23284 -0.137976,-0.13797 -0.206964,-0.31907 -0.206964,-0.54328 V 86.533778 c 0.03449,-1.362513 0.362186,-2.569803 0.983079,-3.62187 0.638139,-1.069314 1.500489,-1.914417 2.58705,-2.535309 1.086561,-0.620892 2.302475,-0.931338 3.647741,-0.931338 1.37976,0 2.61292,0.31907 3.699481,0.957209 1.103808,0.620892 1.966158,1.483242 2.58705,2.58705 0.638139,1.086561 0.957209,2.319721 0.957209,3.699481 0,1.362513 -0.31907,2.595674 -0.957209,3.699482 -0.620892,1.086561 -1.483242,1.948911 -2.58705,2.58705 -1.086561,0.620892 -2.319721,0.931338 -3.699481,0.931338 -1.241784,0 -2.362839,-0.267329 -3.363165,-0.801986 -0.983079,-0.534657 -1.750571,-1.250407 -2.302475,-2.147251 v 9.751916 c 0,0.22421 -0.06899,0.40531 -0.206964,0.54328 -0.137976,0.15523 -0.327693,0.23284 -0.569151,0.23284 z m 6.441755,-9.027547 c 1.086561,0 2.052393,-0.250082 2.897496,-0.750245 0.86235,-0.51741 1.543606,-1.20729 2.043769,-2.06964 0.500163,-0.879597 0.750245,-1.862676 0.750245,-2.949237 0,-1.103808 -0.250082,-2.086887 -0.750245,-2.949237 -0.500163,-0.879597 -1.181419,-1.569477 -2.043769,-2.06964 -0.845103,-0.51741 -1.810935,-0.776115 -2.897496,-0.776115 -1.069314,0 -2.035146,0.258705 -2.897496,0.776115 -0.86235,0.500163 -1.543607,1.190043 -2.04377,2.06964 -0.482916,0.86235 -0.724374,1.845429 -0.724374,2.949237 0,1.086561 0.241458,2.06964 0.724374,2.949237 0.500163,0.86235 1.18142,1.55223 2.04377,2.06964 0.86235,0.500163 1.828182,0.750245 2.897496,0.750245 z"
         style="font-size:25.8705px;line-height:1.25;font-family:Comfortaa;-inkscape-font-specification:Comfortaa;stroke-width:0.646764;fill:#636271;fill-opacity:1"
         id="path1572"
         inkscape:export-xdpi="259.84995"
         inkscape:export-ydpi="259.84995" />
      <g
         id="g1608"
         style="fill:#636271;fill-opacity:1"
         transform="matrix(1.1974633,0,0,1,-25.770458,0)"
         inkscape:export-xdpi="259.84995"
         inkscape:export-ydpi="259.84995">
        <path
           id="path1602"
           d="M 133.35,101.46768 V 79.374999 h 0.60477 l -0.30238,22.092681"
           style="fill:#636271;fill-opacity:1;stroke:none;stroke-width:0.454193;stroke-miterlimit:4;stroke-dasharray:none;stroke-opacity:1" />
        <path
           id="path1604"
           d="m 133.65239,101.46768 0.90714,-22.092681 h 0.90714 l -1.5119,22.092681 2.41905,-22.09268 h 1.20952 l -3.32619,22.09268 4.53572,-22.09268 h 1.5119 l -5.74524,22.09268 7.25714,-22.09268 h 1.81429 l -8.76905,22.09268 10.58334,-22.09268 h 2.11666 l -12.39761,22.09268"
           style="fill:#636271;fill-opacity:1;stroke:none;stroke-width:0.454193;stroke-miterlimit:4;stroke-dasharray:none;stroke-opacity:1" />
      </g>
    </g>
  </g>
</svg>
